<svg width="140" height="140" viewBox="0 0 140 140" fill="none" xmlns="http://www.w3.org/2000/svg">
<path fill-rule="evenodd" clip-rule="evenodd" d="M92.125 11H92.5859V18.8359H120.838L121.001 18.673L121.327 18.9989L121.164 19.1619V47.4141H129V47.875H121.164V69.7695H129V70.2305H121.164V92.125H129V92.5859H121.164V120.838L121.327 121.001L121.001 121.327L120.838 121.164H92.5859V129H92.125V121.164H70.2305V129H69.7695V121.164H47.875V129H47.4141V121.164H19.1619L18.9989 121.327L18.673 121.001L18.8359 120.838V92.5859H11V92.125H18.8359V70.2305H11V69.7695H18.8359V47.875H11V47.4141H18.8359V19.1619L18.673 18.9989L18.9989 18.673L19.1619 18.8359H47.4141V11H47.875V18.8359H69.7695V11H70.2305V18.8359H92.125V11ZM19.2974 70.2305C19.3323 78.0777 21.1499 85.5039 24.366 92.125H47.1522C41.6573 86.4517 38.2565 78.7381 38.1961 70.2305H19.2974ZM38.1961 69.7695H19.2974C19.3323 61.9223 21.1499 54.4961 24.366 47.875H47.1522C41.6573 53.5483 38.2565 61.2619 38.1961 69.7695ZM38.6571 70.2305C38.7172 78.5777 42.0402 86.1491 47.4141 91.7327V70.2305H38.6571ZM47.4141 69.7695H38.6571C38.7172 61.4223 42.0402 53.8508 47.4141 48.2673V69.7695ZM47.875 70.2305V91.7991L69.4436 70.2305H47.875ZM69.4436 69.7695H47.875V48.2009L69.4436 69.7695ZM70.5564 70.2305L92.125 91.7991V70.2305H70.5564ZM92.125 69.7695H70.5564L92.125 48.2009V69.7695ZM92.5859 70.2305V91.7327C97.9598 86.1491 101.283 78.5777 101.343 70.2305H92.5859ZM101.343 69.7695H92.5859V48.2673C97.9598 53.8508 101.283 61.4223 101.343 69.7695ZM101.804 70.2305C101.743 78.7381 98.3427 86.4517 92.8479 92.125H115.634C118.85 85.5039 120.668 78.0777 120.703 70.2305H101.804ZM120.703 69.7695H101.804C101.743 61.2619 98.3427 53.5483 92.8479 47.875H115.634C118.85 54.4961 120.668 61.9223 120.703 69.7695ZM92.125 115.634C85.5039 118.85 78.0777 120.668 70.2305 120.703V101.804C78.7381 101.743 86.4517 98.3427 92.125 92.8478V115.634ZM91.7327 92.5859C86.1491 97.9598 78.5777 101.283 70.2305 101.343V92.5859H91.7327ZM69.7695 101.343V92.5859H48.2673C53.8508 97.9598 61.4223 101.283 69.7695 101.343ZM91.7991 92.125H70.2305V70.5564L91.7991 92.125ZM69.7695 92.125V70.5564L48.2009 92.125H69.7695ZM91.7991 47.875L70.2305 69.4436V47.875H91.7991ZM69.7695 69.4436V47.875H48.2009L69.7695 69.4436ZM91.7327 47.4141H70.2305V38.6571C78.5777 38.7172 86.1491 42.0402 91.7327 47.4141ZM69.7695 47.4141V38.6571C61.4223 38.7172 53.8508 42.0402 48.2673 47.4141H69.7695ZM92.125 47.1522C86.4517 41.6573 78.7381 38.2565 70.2305 38.1961V19.2974C78.0777 19.3323 85.5039 21.1499 92.125 24.366V47.1522ZM69.7695 38.1961V19.2974C61.9223 19.3323 54.4961 21.1499 47.875 24.366V47.1522C53.5483 41.6573 61.2619 38.2565 69.7695 38.1961ZM69.7695 120.703V101.804C61.2619 101.743 53.5483 98.3427 47.875 92.8479V115.634C54.4961 118.85 61.9223 120.668 69.7695 120.703ZM19.2969 47.875V63.1027C20.0228 57.7157 21.587 52.5946 23.854 47.875H19.2969ZM24.0782 47.4141H19.2969V19.6228L33.6589 33.9849C29.7848 37.8939 26.5369 42.4246 24.0782 47.4141ZM47.0881 47.4141H24.5928C27.0167 42.5504 30.199 38.1311 33.9849 34.3108L47.0881 47.4141ZM115.407 47.4141H92.9119L106.015 34.3108C109.801 38.131 112.983 42.5504 115.407 47.4141ZM116.146 47.875C118.413 52.5946 119.977 57.7157 120.703 63.1027V47.875H116.146ZM120.703 47.4141H115.922C113.463 42.4246 110.215 37.8939 106.341 33.9849L120.703 19.6228V47.4141ZM120.703 76.8973V92.125H116.146C118.413 87.4054 119.977 82.2843 120.703 76.8973ZM115.407 92.5859H92.9119L106.015 105.689C109.801 101.869 112.983 97.4496 115.407 92.5859ZM47.0881 92.5859H24.5928C27.0167 97.4496 30.199 101.869 33.9849 105.689L47.0881 92.5859ZM19.2969 76.8973C20.0228 82.2843 21.587 87.4054 23.854 92.125H19.2969V76.8973ZM24.0782 92.5859H19.2969V120.377L33.6589 106.015C29.7848 102.106 26.5369 97.5754 24.0782 92.5859ZM120.703 92.5859H115.922C113.463 97.5754 110.215 102.106 106.341 106.015L120.703 120.377V92.5859ZM47.4141 19.2969H19.6228L33.9849 33.659C37.8939 29.7848 42.4246 26.5369 47.4141 24.0782V19.2969ZM47.875 23.854V19.2969H63.1027C57.7157 20.0228 52.5946 21.587 47.875 23.854ZM47.4141 24.5928C42.5504 27.0167 38.131 30.199 34.3108 33.9849L47.4141 47.0881V24.5928ZM47.4141 92.9119V115.407C42.5504 112.983 38.131 109.801 34.3108 106.015L47.4141 92.9119ZM47.4141 115.922C42.4246 113.463 37.8939 110.215 33.9849 106.341L19.6228 120.703H47.4141V115.922ZM47.875 120.703V116.146C52.5946 118.413 57.7157 119.977 63.1027 120.703H47.875ZM76.8973 19.2969H92.125V23.854C87.4054 21.587 82.2843 20.0228 76.8973 19.2969ZM92.5859 19.2969V24.0782C97.5754 26.5369 102.106 29.7848 106.015 33.6589L120.377 19.2969H92.5859ZM92.5859 24.5928V47.0881L105.689 33.9849C101.869 30.199 97.4496 27.0167 92.5859 24.5928ZM92.5859 92.9119V115.407C97.4496 112.983 101.869 109.801 105.689 106.015L92.5859 92.9119ZM76.8973 120.703C82.2843 119.977 87.4054 118.413 92.125 116.146V120.703H76.8973ZM92.5859 115.922V120.703H120.377L106.015 106.341C102.106 110.215 97.5754 113.463 92.5859 115.922Z" fill="white" fill-opacity="0.5"/>
<g filter="url(#filter0_f_5_784)">
<path fill-rule="evenodd" clip-rule="evenodd" d="M92.125 11H92.5859V18.8359H120.838L121.001 18.673L121.327 18.9989L121.164 19.1619V47.4141H129V47.875H121.164V69.7695H129V70.2305H121.164V92.125H129V92.5859H121.164V120.838L121.327 121.001L121.001 121.327L120.838 121.164H92.5859V129H92.125V121.164H70.2305V129H69.7695V121.164H47.875V129H47.4141V121.164H19.1619L18.9989 121.327L18.673 121.001L18.8359 120.838V92.5859H11V92.125H18.8359V70.2305H11V69.7695H18.8359V47.875H11V47.4141H18.8359V19.1619L18.673 18.9989L18.9989 18.673L19.1619 18.8359H47.4141V11H47.875V18.8359H69.7695V11H70.2305V18.8359H92.125V11ZM19.2974 70.2305C19.3323 78.0777 21.1499 85.5039 24.366 92.125H47.1522C41.6573 86.4517 38.2565 78.7381 38.1961 70.2305H19.2974ZM38.1961 69.7695H19.2974C19.3323 61.9223 21.1499 54.4961 24.366 47.875H47.1522C41.6573 53.5483 38.2565 61.2619 38.1961 69.7695ZM38.6571 70.2305C38.7172 78.5777 42.0402 86.1491 47.4141 91.7327V70.2305H38.6571ZM47.4141 69.7695H38.6571C38.7172 61.4223 42.0402 53.8508 47.4141 48.2673V69.7695ZM47.875 70.2305V91.7991L69.4436 70.2305H47.875ZM69.4436 69.7695H47.875V48.2009L69.4436 69.7695ZM70.5564 70.2305L92.125 91.7991V70.2305H70.5564ZM92.125 69.7695H70.5564L92.125 48.2009V69.7695ZM92.5859 70.2305V91.7327C97.9598 86.1491 101.283 78.5777 101.343 70.2305H92.5859ZM101.343 69.7695H92.5859V48.2673C97.9598 53.8508 101.283 61.4223 101.343 69.7695ZM101.804 70.2305C101.743 78.7381 98.3427 86.4517 92.8479 92.125H115.634C118.85 85.5039 120.668 78.0777 120.703 70.2305H101.804ZM120.703 69.7695H101.804C101.743 61.2619 98.3427 53.5483 92.8479 47.875H115.634C118.85 54.4961 120.668 61.9223 120.703 69.7695ZM92.125 115.634C85.5039 118.85 78.0777 120.668 70.2305 120.703V101.804C78.7381 101.743 86.4517 98.3427 92.125 92.8478V115.634ZM91.7327 92.5859C86.1491 97.9598 78.5777 101.283 70.2305 101.343V92.5859H91.7327ZM69.7695 101.343V92.5859H48.2673C53.8508 97.9598 61.4223 101.283 69.7695 101.343ZM91.7991 92.125H70.2305V70.5564L91.7991 92.125ZM69.7695 92.125V70.5564L48.2009 92.125H69.7695ZM91.7991 47.875L70.2305 69.4436V47.875H91.7991ZM69.7695 69.4436V47.875H48.2009L69.7695 69.4436ZM91.7327 47.4141H70.2305V38.6571C78.5777 38.7172 86.1491 42.0402 91.7327 47.4141ZM69.7695 47.4141V38.6571C61.4223 38.7172 53.8508 42.0402 48.2673 47.4141H69.7695ZM92.125 47.1522C86.4517 41.6573 78.7381 38.2565 70.2305 38.1961V19.2974C78.0777 19.3323 85.5039 21.1499 92.125 24.366V47.1522ZM69.7695 38.1961V19.2974C61.9223 19.3323 54.4961 21.1499 47.875 24.366V47.1522C53.5483 41.6573 61.2619 38.2565 69.7695 38.1961ZM69.7695 120.703V101.804C61.2619 101.743 53.5483 98.3427 47.875 92.8479V115.634C54.4961 118.85 61.9223 120.668 69.7695 120.703ZM19.2969 47.875V63.1027C20.0228 57.7157 21.587 52.5946 23.854 47.875H19.2969ZM24.0782 47.4141H19.2969V19.6228L33.6589 33.9849C29.7848 37.8939 26.5369 42.4246 24.0782 47.4141ZM47.0881 47.4141H24.5928C27.0167 42.5504 30.199 38.1311 33.9849 34.3108L47.0881 47.4141ZM115.407 47.4141H92.9119L106.015 34.3108C109.801 38.131 112.983 42.5504 115.407 47.4141ZM116.146 47.875C118.413 52.5946 119.977 57.7157 120.703 63.1027V47.875H116.146ZM120.703 47.4141H115.922C113.463 42.4246 110.215 37.8939 106.341 33.9849L120.703 19.6228V47.4141ZM120.703 76.8973V92.125H116.146C118.413 87.4054 119.977 82.2843 120.703 76.8973ZM115.407 92.5859H92.9119L106.015 105.689C109.801 101.869 112.983 97.4496 115.407 92.5859ZM47.0881 92.5859H24.5928C27.0167 97.4496 30.199 101.869 33.9849 105.689L47.0881 92.5859ZM19.2969 76.8973C20.0228 82.2843 21.587 87.4054 23.854 92.125H19.2969V76.8973ZM24.0782 92.5859H19.2969V120.377L33.6589 106.015C29.7848 102.106 26.5369 97.5754 24.0782 92.5859ZM120.703 92.5859H115.922C113.463 97.5754 110.215 102.106 106.341 106.015L120.703 120.377V92.5859ZM47.4141 19.2969H19.6228L33.9849 33.659C37.8939 29.7848 42.4246 26.5369 47.4141 24.0782V19.2969ZM47.875 23.854V19.2969H63.1027C57.7157 20.0228 52.5946 21.587 47.875 23.854ZM47.4141 24.5928C42.5504 27.0167 38.131 30.199 34.3108 33.9849L47.4141 47.0881V24.5928ZM47.4141 92.9119V115.407C42.5504 112.983 38.131 109.801 34.3108 106.015L47.4141 92.9119ZM47.4141 115.922C42.4246 113.463 37.8939 110.215 33.9849 106.341L19.6228 120.703H47.4141V115.922ZM47.875 120.703V116.146C52.5946 118.413 57.7157 119.977 63.1027 120.703H47.875ZM76.8973 19.2969H92.125V23.854C87.4054 21.587 82.2843 20.0228 76.8973 19.2969ZM92.5859 19.2969V24.0782C97.5754 26.5369 102.106 29.7848 106.015 33.6589L120.377 19.2969H92.5859ZM92.5859 24.5928V47.0881L105.689 33.9849C101.869 30.199 97.4496 27.0167 92.5859 24.5928ZM92.5859 92.9119V115.407C97.4496 112.983 101.869 109.801 105.689 106.015L92.5859 92.9119ZM76.8973 120.703C82.2843 119.977 87.4054 118.413 92.125 116.146V120.703H76.8973ZM92.5859 115.922V120.703H120.377L106.015 106.341C102.106 110.215 97.5754 113.463 92.5859 115.922Z" fill="white" fill-opacity="0.5"/>
</g>
<g filter="url(#filter1_b_5_784)">
<path d="M94.2967 48.3549C89.6976 46.2912 84.8424 44.827 79.8551 44C79.1727 45.1958 78.5552 46.4261 78.0052 47.6858C72.6928 46.9011 67.2904 46.9011 61.978 47.6858C61.4278 46.4262 60.8103 45.1959 60.1281 44C55.1376 44.834 50.2793 46.3016 45.6756 48.3657C36.536 61.6193 34.0585 74.5438 35.2973 87.2848C40.6496 91.1608 46.6404 94.1086 53.0092 96C54.4433 94.1095 55.7122 92.1039 56.8026 90.0046C54.7316 89.2464 52.7326 88.311 50.8289 87.2092C51.3299 86.853 51.82 86.4861 52.2934 86.1299C57.8327 88.6832 63.8786 90.0071 69.9999 90.0071C76.1211 90.0071 82.167 88.6832 87.7063 86.1299C88.1853 86.5131 88.6753 86.88 89.1708 87.2092C87.2635 88.3128 85.2608 89.25 83.1861 90.01C84.2752 92.1084 85.5442 94.1123 86.9795 96C93.3538 94.1162 99.3492 91.1698 104.702 87.2902C106.156 72.5147 102.219 59.709 94.2967 48.3549ZM58.3718 79.4491C54.9197 79.4491 52.0677 76.3786 52.0677 72.6011C52.0677 68.8236 54.8206 65.726 58.3608 65.726C61.9009 65.726 64.7309 68.8236 64.6703 72.6011C64.6098 76.3786 61.8899 79.4491 58.3718 79.4491ZM81.628 79.4491C78.1704 79.4491 75.3294 76.3786 75.3294 72.6011C75.3294 68.8236 78.0823 65.726 81.628 65.726C85.1737 65.726 87.9816 68.8236 87.921 72.6011C87.8605 76.3786 85.1461 79.4491 81.628 79.4491Z" fill="white" fill-opacity="0.66"/>
</g>
<g filter="url(#filter2_f_5_784)">
<path d="M94.2967 48.3549C89.6976 46.2912 84.8424 44.827 79.8551 44C79.1727 45.1958 78.5552 46.4261 78.0052 47.6858C72.6928 46.9011 67.2904 46.9011 61.978 47.6858C61.4278 46.4262 60.8103 45.1959 60.1281 44C55.1376 44.834 50.2793 46.3016 45.6756 48.3657C36.536 61.6193 34.0585 74.5438 35.2973 87.2848C40.6496 91.1608 46.6404 94.1086 53.0092 96C54.4433 94.1095 55.7122 92.1039 56.8026 90.0046C54.7316 89.2464 52.7326 88.311 50.8289 87.2092C51.3299 86.853 51.82 86.4861 52.2934 86.1299C57.8327 88.6832 63.8786 90.0071 69.9999 90.0071C76.1211 90.0071 82.167 88.6832 87.7063 86.1299C88.1853 86.5131 88.6753 86.88 89.1708 87.2092C87.2635 88.3128 85.2608 89.25 83.1861 90.01C84.2752 92.1084 85.5442 94.1123 86.9795 96C93.3538 94.1162 99.3492 91.1698 104.702 87.2902C106.156 72.5147 102.219 59.709 94.2967 48.3549ZM58.3718 79.4491C54.9197 79.4491 52.0677 76.3786 52.0677 72.6011C52.0677 68.8236 54.8206 65.726 58.3608 65.726C61.9009 65.726 64.7309 68.8236 64.6703 72.6011C64.6098 76.3786 61.8899 79.4491 58.3718 79.4491ZM81.628 79.4491C78.1704 79.4491 75.3294 76.3786 75.3294 72.6011C75.3294 68.8236 78.0823 65.726 81.628 65.726C85.1737 65.726 87.9816 68.8236 87.921 72.6011C87.8605 76.3786 85.1461 79.4491 81.628 79.4491Z" fill="white" fill-opacity="0.66"/>
</g>
<defs>
<filter id="filter0_f_5_784" x="0" y="0" width="140" height="140" filterUnits="userSpaceOnUse" color-interpolation-filters="sRGB">
<feFlood flood-opacity="0" result="BackgroundImageFix"/>
<feBlend mode="normal" in="SourceGraphic" in2="BackgroundImageFix" result="shape"/>
<feGaussianBlur stdDeviation="5.5" result="effect1_foregroundBlur_5_784"/>
</filter>
<filter id="filter1_b_5_784" x="28" y="37" width="84" height="66" filterUnits="userSpaceOnUse" color-interpolation-filters="sRGB">
<feFlood flood-opacity="0" result="BackgroundImageFix"/>
<feGaussianBlur in="BackgroundImageFix" stdDeviation="3.5"/>
<feComposite in2="SourceAlpha" operator="in" result="effect1_backgroundBlur_5_784"/>
<feBlend mode="normal" in="SourceGraphic" in2="effect1_backgroundBlur_5_784" result="shape"/>
</filter>
<filter id="filter2_f_5_784" x="27" y="36" width="86" height="68" filterUnits="userSpaceOnUse" color-interpolation-filters="sRGB">
<feFlood flood-opacity="0" result="BackgroundImageFix"/>
<feBlend mode="normal" in="SourceGraphic" in2="BackgroundImageFix" result="shape"/>
<feGaussianBlur stdDeviation="4" result="effect1_foregroundBlur_5_784"/>
</filter>
</defs>
</svg>
