<svg width="390" height="200" viewBox="0 0 390 200" fill="none" xmlns="http://www.w3.org/2000/svg">
<g clip-path="url(#clip0_4_776)">
<rect width="390" height="200" fill="url(#paint0_linear_4_776)"/>
<path fill-rule="evenodd" clip-rule="evenodd" d="M277.438 -118H279.145V-88.9805H383.773L384.377 -89.584L385.584 -88.3769L384.98 -87.7735V16.8555H414V18.5625H384.98V99.6465H414V101.354H384.98V182.438H414V184.145H384.98V288.773L385.584 289.377L384.377 290.584L383.773 289.98H279.145V319H277.438V289.98H196.354V319H194.646V289.98H113.562V319H111.855V289.98H7.22653L6.62302 290.584L5.41596 289.377L6.01953 288.773V184.145H-23V182.438H6.01953V101.354H-23V99.6465H6.01953V18.5625H-23V16.8555H6.01953V-87.7734L5.41596 -88.3769L6.62302 -89.584L7.22653 -88.9805H111.855V-118H113.562V-88.9805H194.646V-118H196.354V-88.9805H277.438V-118ZM7.72846 101.354C7.85779 130.415 14.5889 157.917 26.4994 182.438H110.886C90.5359 161.427 77.9415 132.861 77.7179 101.354H7.72846ZM77.7179 99.6465H7.72846C7.85779 70.5853 14.5889 43.0831 26.4994 18.5625H110.886C90.5358 39.5728 77.9415 68.1393 77.7179 99.6465ZM79.4249 101.354C79.6476 132.267 91.954 160.307 111.855 180.984V101.354H79.4249ZM111.855 99.6465H79.4249C79.6476 68.7333 91.954 40.6934 111.855 20.0155V99.6465ZM113.562 101.354V181.23L193.439 101.354H113.562ZM193.439 99.6465H113.562V19.7696L193.439 99.6465ZM197.561 101.354L277.438 181.23V101.354H197.561ZM277.438 99.6465H197.561L277.438 19.7695V99.6465ZM279.145 101.354V180.984C299.046 160.307 311.352 132.267 311.575 101.354H279.145ZM311.575 99.6465H279.145V20.0155C299.046 40.6934 311.352 68.7333 311.575 99.6465ZM313.282 101.354C313.059 132.861 300.464 161.427 280.115 182.438H364.501C376.411 157.917 383.142 130.415 383.272 101.354H313.282ZM383.272 99.6465H313.282C313.059 68.1393 300.464 39.5728 280.115 18.5625H364.501C376.411 43.0831 383.142 70.5853 383.272 99.6465ZM277.438 269.501C252.917 281.411 225.415 288.142 196.354 288.272V218.282C227.861 218.059 256.427 205.464 277.438 185.114V269.501ZM275.984 184.145C255.307 204.046 227.267 216.352 196.354 216.575V184.145H275.984ZM194.646 216.575V184.145H115.016C135.693 204.046 163.733 216.352 194.646 216.575ZM276.23 182.438H196.354V102.561L276.23 182.438ZM194.646 182.438V102.561L114.77 182.438H194.646ZM276.23 18.5625L196.354 98.4394V18.5625H276.23ZM194.646 98.4395V18.5625H114.77L194.646 98.4395ZM275.984 16.8555H196.354V-15.5751C227.267 -15.3524 255.307 -3.046 275.984 16.8555ZM194.646 16.8555V-15.5751C163.733 -15.3524 135.693 -3.046 115.016 16.8555H194.646ZM277.438 15.8855C256.427 -4.46415 227.861 -17.0585 196.354 -17.2821V-87.2715C225.415 -87.1422 252.917 -80.4111 277.438 -68.5006V15.8855ZM194.646 -17.2821V-87.2715C165.585 -87.1422 138.083 -80.4111 113.562 -68.5006V15.8855C134.573 -4.46415 163.139 -17.0585 194.646 -17.2821ZM194.646 288.272V218.282C163.139 218.059 134.573 205.464 113.562 185.115V269.501C138.083 281.411 165.585 288.142 194.646 288.272ZM7.72656 18.5625V74.9565C10.4148 55.0065 16.2078 36.0411 24.6033 18.5625H7.72656ZM25.4338 16.8555H7.72656V-86.0663L60.9149 -32.878C46.5674 -18.4015 34.5392 -1.6225 25.4338 16.8555ZM110.648 16.8555H27.3394C36.316 -1.15649 48.1014 -17.5231 62.1219 -31.671L110.648 16.8555ZM363.661 16.8555H280.352L328.878 -31.671C342.899 -17.5232 354.684 -1.15652 363.661 16.8555ZM366.397 18.5625C374.792 36.0411 380.585 55.0065 383.273 74.9565V18.5625H366.397ZM383.273 16.8555H365.566C356.461 -1.62253 344.433 -18.4015 330.085 -32.8781L383.273 -86.0664V16.8555ZM383.273 126.043V182.438H366.397C374.792 164.959 380.585 145.993 383.273 126.043ZM363.661 184.145H280.352L328.878 232.671C342.899 218.523 354.684 202.157 363.661 184.145ZM110.648 184.145H27.3394C36.316 202.156 48.1014 218.523 62.1219 232.671L110.648 184.145ZM7.72656 126.043C10.4148 145.993 16.2078 164.959 24.6033 182.438H7.72656V126.043ZM25.4338 184.145H7.72656V287.066L60.9149 233.878C46.5674 219.402 34.5392 202.623 25.4338 184.145ZM383.273 184.145H365.566C356.461 202.623 344.433 219.402 330.085 233.878L383.273 287.066V184.145ZM111.855 -87.2734H8.93357L62.1219 -34.0851C76.5985 -48.4326 93.3775 -60.4608 111.855 -69.5662V-87.2734ZM113.562 -70.3967V-87.2734H169.957C150.007 -84.5852 131.041 -78.7922 113.562 -70.3967ZM111.855 -67.6606C93.8435 -58.684 77.4768 -46.8986 63.329 -32.878L111.855 15.6485V-67.6606ZM111.855 185.352V268.661C93.8435 259.684 77.4768 247.899 63.329 233.878L111.855 185.352ZM111.855 270.566C93.3775 261.461 76.5985 249.433 62.1219 235.085L8.93357 288.273H111.855V270.566ZM113.562 288.273V271.397C131.041 279.792 150.007 285.585 169.957 288.273H113.562ZM221.043 -87.2734H277.438V-70.3967C259.959 -78.7922 240.993 -84.5852 221.043 -87.2734ZM279.145 -87.2734V-69.5662C297.623 -60.4608 314.402 -48.4326 328.878 -34.0851L382.066 -87.2734H279.145ZM279.145 -67.6606V15.6484L327.671 -32.8781C313.523 -46.8986 297.156 -58.684 279.145 -67.6606ZM279.145 185.352V268.661C297.156 259.684 313.523 247.899 327.671 233.878L279.145 185.352ZM221.043 288.273C240.993 285.585 259.959 279.792 277.438 271.397V288.273H221.043ZM279.145 270.566V288.273H382.066L328.878 235.085C314.402 249.433 297.623 261.461 279.145 270.566Z" fill="white" fill-opacity="0.5"/>
<g filter="url(#filter0_f_4_776)">
<path fill-rule="evenodd" clip-rule="evenodd" d="M277.438 -118H279.145V-88.9805H383.773L384.377 -89.584L385.584 -88.3769L384.98 -87.7735V16.8555H414V18.5625H384.98V99.6465H414V101.354H384.98V182.438H414V184.145H384.98V288.773L385.584 289.377L384.377 290.584L383.773 289.98H279.145V319H277.438V289.98H196.354V319H194.646V289.98H113.562V319H111.855V289.98H7.22653L6.62302 290.584L5.41596 289.377L6.01953 288.773V184.145H-23V182.438H6.01953V101.354H-23V99.6465H6.01953V18.5625H-23V16.8555H6.01953V-87.7734L5.41596 -88.3769L6.62302 -89.584L7.22653 -88.9805H111.855V-118H113.562V-88.9805H194.646V-118H196.354V-88.9805H277.438V-118ZM7.72846 101.354C7.85779 130.415 14.5889 157.917 26.4994 182.438H110.886C90.5359 161.427 77.9415 132.861 77.7179 101.354H7.72846ZM77.7179 99.6465H7.72846C7.85779 70.5853 14.5889 43.0831 26.4994 18.5625H110.886C90.5358 39.5728 77.9415 68.1393 77.7179 99.6465ZM79.4249 101.354C79.6476 132.267 91.954 160.307 111.855 180.984V101.354H79.4249ZM111.855 99.6465H79.4249C79.6476 68.7333 91.954 40.6934 111.855 20.0155V99.6465ZM113.562 101.354V181.23L193.439 101.354H113.562ZM193.439 99.6465H113.562V19.7696L193.439 99.6465ZM197.561 101.354L277.438 181.23V101.354H197.561ZM277.438 99.6465H197.561L277.438 19.7695V99.6465ZM279.145 101.354V180.984C299.046 160.307 311.352 132.267 311.575 101.354H279.145ZM311.575 99.6465H279.145V20.0155C299.046 40.6934 311.352 68.7333 311.575 99.6465ZM313.282 101.354C313.059 132.861 300.464 161.427 280.115 182.438H364.501C376.411 157.917 383.142 130.415 383.272 101.354H313.282ZM383.272 99.6465H313.282C313.059 68.1393 300.464 39.5728 280.115 18.5625H364.501C376.411 43.0831 383.142 70.5853 383.272 99.6465ZM277.438 269.501C252.917 281.411 225.415 288.142 196.354 288.272V218.282C227.861 218.059 256.427 205.464 277.438 185.114V269.501ZM275.984 184.145C255.307 204.046 227.267 216.352 196.354 216.575V184.145H275.984ZM194.646 216.575V184.145H115.016C135.693 204.046 163.733 216.352 194.646 216.575ZM276.23 182.438H196.354V102.561L276.23 182.438ZM194.646 182.438V102.561L114.77 182.438H194.646ZM276.23 18.5625L196.354 98.4394V18.5625H276.23ZM194.646 98.4395V18.5625H114.77L194.646 98.4395ZM275.984 16.8555H196.354V-15.5751C227.267 -15.3524 255.307 -3.046 275.984 16.8555ZM194.646 16.8555V-15.5751C163.733 -15.3524 135.693 -3.046 115.016 16.8555H194.646ZM277.438 15.8855C256.427 -4.46415 227.861 -17.0585 196.354 -17.2821V-87.2715C225.415 -87.1422 252.917 -80.4111 277.438 -68.5006V15.8855ZM194.646 -17.2821V-87.2715C165.585 -87.1422 138.083 -80.4111 113.562 -68.5006V15.8855C134.573 -4.46415 163.139 -17.0585 194.646 -17.2821ZM194.646 288.272V218.282C163.139 218.059 134.573 205.464 113.562 185.115V269.501C138.083 281.411 165.585 288.142 194.646 288.272ZM7.72656 18.5625V74.9565C10.4148 55.0065 16.2078 36.0411 24.6033 18.5625H7.72656ZM25.4338 16.8555H7.72656V-86.0663L60.9149 -32.878C46.5674 -18.4015 34.5392 -1.6225 25.4338 16.8555ZM110.648 16.8555H27.3394C36.316 -1.15649 48.1014 -17.5231 62.1219 -31.671L110.648 16.8555ZM363.661 16.8555H280.352L328.878 -31.671C342.899 -17.5232 354.684 -1.15652 363.661 16.8555ZM366.397 18.5625C374.792 36.0411 380.585 55.0065 383.273 74.9565V18.5625H366.397ZM383.273 16.8555H365.566C356.461 -1.62253 344.433 -18.4015 330.085 -32.8781L383.273 -86.0664V16.8555ZM383.273 126.043V182.438H366.397C374.792 164.959 380.585 145.993 383.273 126.043ZM363.661 184.145H280.352L328.878 232.671C342.899 218.523 354.684 202.157 363.661 184.145ZM110.648 184.145H27.3394C36.316 202.156 48.1014 218.523 62.1219 232.671L110.648 184.145ZM7.72656 126.043C10.4148 145.993 16.2078 164.959 24.6033 182.438H7.72656V126.043ZM25.4338 184.145H7.72656V287.066L60.9149 233.878C46.5674 219.402 34.5392 202.623 25.4338 184.145ZM383.273 184.145H365.566C356.461 202.623 344.433 219.402 330.085 233.878L383.273 287.066V184.145ZM111.855 -87.2734H8.93357L62.1219 -34.0851C76.5985 -48.4326 93.3775 -60.4608 111.855 -69.5662V-87.2734ZM113.562 -70.3967V-87.2734H169.957C150.007 -84.5852 131.041 -78.7922 113.562 -70.3967ZM111.855 -67.6606C93.8435 -58.684 77.4768 -46.8986 63.329 -32.878L111.855 15.6485V-67.6606ZM111.855 185.352V268.661C93.8435 259.684 77.4768 247.899 63.329 233.878L111.855 185.352ZM111.855 270.566C93.3775 261.461 76.5985 249.433 62.1219 235.085L8.93357 288.273H111.855V270.566ZM113.562 288.273V271.397C131.041 279.792 150.007 285.585 169.957 288.273H113.562ZM221.043 -87.2734H277.438V-70.3967C259.959 -78.7922 240.993 -84.5852 221.043 -87.2734ZM279.145 -87.2734V-69.5662C297.623 -60.4608 314.402 -48.4326 328.878 -34.0851L382.066 -87.2734H279.145ZM279.145 -67.6606V15.6484L327.671 -32.8781C313.523 -46.8986 297.156 -58.684 279.145 -67.6606ZM279.145 185.352V268.661C297.156 259.684 313.523 247.899 327.671 233.878L279.145 185.352ZM221.043 288.273C240.993 285.585 259.959 279.792 277.438 271.397V288.273H221.043ZM279.145 270.566V288.273H382.066L328.878 235.085C314.402 249.433 297.623 261.461 279.145 270.566Z" fill="white" fill-opacity="0.5"/>
</g>
<g filter="url(#filter1_b_4_776)">
<path d="M228.474 70.9102C222.232 68.1094 215.643 66.1224 208.875 65C207.949 66.6229 207.111 68.2925 206.364 70.0021C199.155 68.9372 191.823 68.9372 184.613 70.0021C183.866 68.2927 183.028 66.623 182.102 65C175.33 66.1319 168.736 68.1236 162.488 70.9249C150.085 88.912 146.722 106.452 148.403 123.744C155.667 129.004 163.798 133.005 172.441 135.571C174.387 133.006 176.109 130.284 177.589 127.435C174.779 126.406 172.066 125.136 169.482 123.641C170.162 123.158 170.827 122.66 171.47 122.176C178.987 125.642 187.192 127.438 195.5 127.438C203.807 127.438 212.012 125.642 219.53 122.176C220.18 122.696 220.845 123.194 221.518 123.641C218.929 125.139 216.211 126.411 213.395 127.442C214.873 130.29 216.596 133.009 218.544 135.571C227.194 133.015 235.331 129.016 242.596 123.751C244.569 103.699 239.226 86.3194 228.474 70.9102ZM179.719 113.11C175.034 113.11 171.163 108.942 171.163 103.816C171.163 98.6891 174.899 94.4853 179.704 94.4853C184.508 94.4853 188.349 98.6891 188.267 103.816C188.185 108.942 184.493 113.11 179.719 113.11ZM211.281 113.11C206.588 113.11 202.733 108.942 202.733 103.816C202.733 98.6891 206.469 94.4853 211.281 94.4853C216.093 94.4853 219.904 98.6891 219.821 103.816C219.739 108.942 216.055 113.11 211.281 113.11Z" fill="white" fill-opacity="0.66"/>
</g>
<g filter="url(#filter2_f_4_776)">
<path d="M228.474 70.9102C222.232 68.1094 215.643 66.1224 208.875 65C207.949 66.6229 207.111 68.2925 206.364 70.0021C199.155 68.9372 191.823 68.9372 184.613 70.0021C183.866 68.2927 183.028 66.623 182.102 65C175.33 66.1319 168.736 68.1236 162.488 70.9249C150.085 88.912 146.722 106.452 148.403 123.744C155.667 129.004 163.798 133.005 172.441 135.571C174.387 133.006 176.109 130.284 177.589 127.435C174.779 126.406 172.066 125.136 169.482 123.641C170.162 123.158 170.827 122.66 171.47 122.176C178.987 125.642 187.192 127.438 195.5 127.438C203.807 127.438 212.012 125.642 219.53 122.176C220.18 122.696 220.845 123.194 221.518 123.641C218.929 125.139 216.211 126.411 213.395 127.442C214.873 130.29 216.596 133.009 218.544 135.571C227.194 133.015 235.331 129.016 242.596 123.751C244.569 103.699 239.226 86.3194 228.474 70.9102ZM179.719 113.11C175.034 113.11 171.163 108.942 171.163 103.816C171.163 98.6891 174.899 94.4853 179.704 94.4853C184.508 94.4853 188.349 98.6891 188.267 103.816C188.185 108.942 184.493 113.11 179.719 113.11ZM211.281 113.11C206.588 113.11 202.733 108.942 202.733 103.816C202.733 98.6891 206.469 94.4853 211.281 94.4853C216.093 94.4853 219.904 98.6891 219.821 103.816C219.739 108.942 216.055 113.11 211.281 113.11Z" fill="white" fill-opacity="0.66"/>
</g>
</g>
<defs>
<filter id="filter0_f_4_776" x="-33" y="-128" width="457" height="457" filterUnits="userSpaceOnUse" color-interpolation-filters="sRGB">
<feFlood flood-opacity="0" result="BackgroundImageFix"/>
<feBlend mode="normal" in="SourceGraphic" in2="BackgroundImageFix" result="shape"/>
<feGaussianBlur stdDeviation="5" result="effect1_foregroundBlur_4_776"/>
</filter>
<filter id="filter1_b_4_776" x="141" y="58" width="109" height="84.5714" filterUnits="userSpaceOnUse" color-interpolation-filters="sRGB">
<feFlood flood-opacity="0" result="BackgroundImageFix"/>
<feGaussianBlur in="BackgroundImageFix" stdDeviation="3.5"/>
<feComposite in2="SourceAlpha" operator="in" result="effect1_backgroundBlur_4_776"/>
<feBlend mode="normal" in="SourceGraphic" in2="effect1_backgroundBlur_4_776" result="shape"/>
</filter>
<filter id="filter2_f_4_776" x="140" y="57" width="111" height="86.5714" filterUnits="userSpaceOnUse" color-interpolation-filters="sRGB">
<feFlood flood-opacity="0" result="BackgroundImageFix"/>
<feBlend mode="normal" in="SourceGraphic" in2="BackgroundImageFix" result="shape"/>
<feGaussianBlur stdDeviation="4" result="effect1_foregroundBlur_4_776"/>
</filter>
<linearGradient id="paint0_linear_4_776" x1="195" y1="0" x2="195" y2="200" gradientUnits="userSpaceOnUse">
<stop stop-color="#1BD5FE"/>
<stop offset="1" stop-color="#1F64F0"/>
<stop offset="1" stop-color="white" stop-opacity="0"/>
</linearGradient>
<clipPath id="clip0_4_776">
<rect width="390" height="200" fill="white"/>
</clipPath>
</defs>
</svg>
